<svg xmlns="http://www.w3.org/2000/svg" viewBox="0 0 300 340" fill="none">
  <defs>
    <linearGradient id="lotusGradV" x1="0" y1="0" x2="0" y2="1">
      <stop offset="0%" stop-color="#6B2E8E"/>
      <stop offset="55%" stop-color="#B56BC9"/>
      <stop offset="100%" stop-color="#F3C7E0"/>
    </linearGradient>
  </defs>
  <!-- Lotus -->
  <g transform="translate(150 110)">
    <path d="M0 -70 C -25 -35 -25 0 0 18 C 25 0 25 -35 0 -70 Z" fill="url(#lotusGradV)"/>
    <path d="M0 18 C -40 0 -72 -18 -80 8 C -72 35 -27 45 0 35 Z" fill="url(#lotusGradV)" opacity="0.95"/>
    <path d="M0 18 C 40 0 72 -18 80 8 C 72 35 27 45 0 35 Z" fill="url(#lotusGradV)" opacity="0.95"/>
    <path d="M0 27 C -55 10 -108 27 -100 55 C -72 72 -27 62 0 50 Z" fill="url(#lotusGradV)" opacity="0.85"/>
    <path d="M0 27 C 55 10 108 27 100 55 C 72 72 27 62 0 50 Z" fill="url(#lotusGradV)" opacity="0.85"/>
  </g>
  <!-- Wordmark -->
  <text x="150" y="240" text-anchor="middle" font-family="'Playfair Display', Georgia, serif" font-size="42" font-weight="600" fill="#8A8A8A" letter-spacing="1">OHM<tspan fill="#9B9B9B">Pharma</tspan></text>
  <!-- Decorative lines -->
  <line x1="70" y1="275" x2="115" y2="275" stroke="#E89BC4" stroke-width="1.5"/>
  <line x1="185" y1="275" x2="230" y2="275" stroke="#E89BC4" stroke-width="1.5"/>
  <!-- Tagline -->
  <text x="150" y="282" text-anchor="middle" font-family="'Dancing Script', cursive" font-size="28" font-style="italic" font-weight="700" fill="#6B2E8E">I Love Myself</text>
</svg>
