<svg xmlns="http://www.w3.org/2000/svg" viewBox="0 0 160 160" fill="none">
  <defs>
    <linearGradient id="lotusGradM" x1="0" y1="0" x2="0" y2="1">
      <stop offset="0%" stop-color="#6B2E8E"/>
      <stop offset="55%" stop-color="#B56BC9"/>
      <stop offset="100%" stop-color="#F3C7E0"/>
    </linearGradient>
  </defs>
  <g transform="translate(80 90)">
    <path d="M0 -55 C -20 -28 -20 0 0 14 C 20 0 20 -28 0 -55 Z" fill="url(#lotusGradM)"/>
    <path d="M0 14 C -30 0 -55 -14 -60 6 C -55 26 -20 34 0 26 Z" fill="url(#lotusGradM)" opacity="0.95"/>
    <path d="M0 14 C 30 0 55 -14 60 6 C 55 26 20 34 0 26 Z" fill="url(#lotusGradM)" opacity="0.95"/>
    <path d="M0 20 C -42 8 -82 20 -76 42 C -55 55 -20 48 0 38 Z" fill="url(#lotusGradM)" opacity="0.85"/>
    <path d="M0 20 C 42 8 82 20 76 42 C 55 55 20 48 0 38 Z" fill="url(#lotusGradM)" opacity="0.85"/>
  </g>
</svg>
